<mxfile host="app.diagrams.net" agent="Mozilla/5.0 (Windows NT 10.0; Win64; x64) AppleWebKit/537.36 (KHTML, like Gecko) Chrome/135.0.0.0 Safari/537.36" version="26.0.14">
  <diagram name="Page-1" id="GQtDS3ll7pvuKEkiSH4Z">
    <mxGraphModel dx="1730" dy="460" grid="1" gridSize="10" guides="1" tooltips="1" connect="1" arrows="1" fold="1" page="1" pageScale="1" pageWidth="850" pageHeight="1100" math="0" shadow="0">
      <root>
        <mxCell id="0" />
        <mxCell id="1" parent="0" />
        <mxCell id="ujQeHG0R-6USSkuK_Hf3-1" value="" style="shape=link;html=1;rounded=0;" parent="1" target="ujQeHG0R-6USSkuK_Hf3-5" edge="1">
          <mxGeometry relative="1" as="geometry">
            <mxPoint x="700" y="20" as="sourcePoint" />
            <mxPoint x="860" y="20" as="targetPoint" />
          </mxGeometry>
        </mxCell>
        <mxCell id="ujQeHG0R-6USSkuK_Hf3-2" value="M" style="resizable=0;html=1;whiteSpace=wrap;align=left;verticalAlign=bottom;" parent="ujQeHG0R-6USSkuK_Hf3-1" connectable="0" vertex="1">
          <mxGeometry x="-1" relative="1" as="geometry" />
        </mxCell>
        <mxCell id="ujQeHG0R-6USSkuK_Hf3-3" value="N" style="resizable=0;html=1;whiteSpace=wrap;align=right;verticalAlign=bottom;" parent="ujQeHG0R-6USSkuK_Hf3-1" connectable="0" vertex="1">
          <mxGeometry x="1" relative="1" as="geometry" />
        </mxCell>
        <mxCell id="ujQeHG0R-6USSkuK_Hf3-4" value="VPC" style="points=[[0,0],[0.25,0],[0.5,0],[0.75,0],[1,0],[1,0.25],[1,0.5],[1,0.75],[1,1],[0.75,1],[0.5,1],[0.25,1],[0,1],[0,0.75],[0,0.5],[0,0.25]];outlineConnect=0;gradientColor=none;html=1;whiteSpace=wrap;fontSize=12;fontStyle=0;container=1;pointerEvents=0;collapsible=0;recursiveResize=0;shape=mxgraph.aws4.group;grIcon=mxgraph.aws4.group_vpc2;strokeColor=#8C4FFF;fillColor=none;verticalAlign=top;align=left;spacingLeft=30;fontColor=#AAB7B8;dashed=0;" parent="1" vertex="1">
          <mxGeometry x="-20" y="20" width="890" height="460" as="geometry" />
        </mxCell>
        <mxCell id="ujQeHG0R-6USSkuK_Hf3-6" value="Availability Zone" style="fillColor=none;strokeColor=#147EBA;dashed=1;verticalAlign=top;fontStyle=0;fontColor=#147EBA;whiteSpace=wrap;html=1;" parent="ujQeHG0R-6USSkuK_Hf3-4" vertex="1">
          <mxGeometry x="40" y="40" width="300" height="370" as="geometry" />
        </mxCell>
        <mxCell id="ujQeHG0R-6USSkuK_Hf3-5" value="Availability Zone" style="fillColor=none;strokeColor=#147EBA;dashed=1;verticalAlign=top;fontStyle=0;fontColor=#147EBA;whiteSpace=wrap;html=1;" parent="ujQeHG0R-6USSkuK_Hf3-4" vertex="1">
          <mxGeometry x="530" y="40" width="300" height="370" as="geometry" />
        </mxCell>
        <mxCell id="ujQeHG0R-6USSkuK_Hf3-8" value="Public subnet" style="points=[[0,0],[0.25,0],[0.5,0],[0.75,0],[1,0],[1,0.25],[1,0.5],[1,0.75],[1,1],[0.75,1],[0.5,1],[0.25,1],[0,1],[0,0.75],[0,0.5],[0,0.25]];outlineConnect=0;gradientColor=none;html=1;whiteSpace=wrap;fontSize=12;fontStyle=0;container=1;pointerEvents=0;collapsible=0;recursiveResize=0;shape=mxgraph.aws4.group;grIcon=mxgraph.aws4.group_security_group;grStroke=0;strokeColor=#7AA116;fillColor=#F2F6E8;verticalAlign=top;align=left;spacingLeft=30;fontColor=#248814;dashed=0;" parent="ujQeHG0R-6USSkuK_Hf3-4" vertex="1">
          <mxGeometry x="607.5" y="78" width="145" height="143" as="geometry" />
        </mxCell>
        <mxCell id="ujQeHG0R-6USSkuK_Hf3-13" value="" style="sketch=0;points=[[0,0,0],[0.25,0,0],[0.5,0,0],[0.75,0,0],[1,0,0],[0,1,0],[0.25,1,0],[0.5,1,0],[0.75,1,0],[1,1,0],[0,0.25,0],[0,0.5,0],[0,0.75,0],[1,0.25,0],[1,0.5,0],[1,0.75,0]];outlineConnect=0;fontColor=#232F3E;fillColor=#ED7100;strokeColor=#ffffff;dashed=0;verticalLabelPosition=bottom;verticalAlign=top;align=center;html=1;fontSize=12;fontStyle=0;aspect=fixed;shape=mxgraph.aws4.resourceIcon;resIcon=mxgraph.aws4.ec2;" parent="ujQeHG0R-6USSkuK_Hf3-8" vertex="1">
          <mxGeometry x="32.5" y="39" width="78" height="78" as="geometry" />
        </mxCell>
        <mxCell id="ujQeHG0R-6USSkuK_Hf3-10" value="Public subnet" style="points=[[0,0],[0.25,0],[0.5,0],[0.75,0],[1,0],[1,0.25],[1,0.5],[1,0.75],[1,1],[0.75,1],[0.5,1],[0.25,1],[0,1],[0,0.75],[0,0.5],[0,0.25]];outlineConnect=0;gradientColor=none;html=1;whiteSpace=wrap;fontSize=12;fontStyle=0;container=1;pointerEvents=0;collapsible=0;recursiveResize=0;shape=mxgraph.aws4.group;grIcon=mxgraph.aws4.group_security_group;grStroke=0;strokeColor=#7AA116;fillColor=#F2F6E8;verticalAlign=top;align=left;spacingLeft=30;fontColor=#248814;dashed=0;" parent="ujQeHG0R-6USSkuK_Hf3-4" vertex="1">
          <mxGeometry x="120" y="78" width="140" height="141" as="geometry" />
        </mxCell>
        <mxCell id="ujQeHG0R-6USSkuK_Hf3-11" value="Private subnet" style="points=[[0,0],[0.25,0],[0.5,0],[0.75,0],[1,0],[1,0.25],[1,0.5],[1,0.75],[1,1],[0.75,1],[0.5,1],[0.25,1],[0,1],[0,0.75],[0,0.5],[0,0.25]];outlineConnect=0;gradientColor=none;html=1;whiteSpace=wrap;fontSize=12;fontStyle=0;container=1;pointerEvents=0;collapsible=0;recursiveResize=0;shape=mxgraph.aws4.group;grIcon=mxgraph.aws4.group_security_group;grStroke=0;strokeColor=#00A4A6;fillColor=#E6F6F7;verticalAlign=top;align=left;spacingLeft=30;fontColor=#147EBA;dashed=0;" parent="ujQeHG0R-6USSkuK_Hf3-4" vertex="1">
          <mxGeometry x="615" y="248" width="130" height="130" as="geometry" />
        </mxCell>
        <mxCell id="ujQeHG0R-6USSkuK_Hf3-12" value="Private subnet" style="points=[[0,0],[0.25,0],[0.5,0],[0.75,0],[1,0],[1,0.25],[1,0.5],[1,0.75],[1,1],[0.75,1],[0.5,1],[0.25,1],[0,1],[0,0.75],[0,0.5],[0,0.25]];outlineConnect=0;gradientColor=none;html=1;whiteSpace=wrap;fontSize=12;fontStyle=0;container=1;pointerEvents=0;collapsible=0;recursiveResize=0;shape=mxgraph.aws4.group;grIcon=mxgraph.aws4.group_security_group;grStroke=0;strokeColor=#00A4A6;fillColor=#E6F6F7;verticalAlign=top;align=left;spacingLeft=30;fontColor=#147EBA;dashed=0;" parent="ujQeHG0R-6USSkuK_Hf3-4" vertex="1">
          <mxGeometry x="125" y="248" width="130" height="130" as="geometry" />
        </mxCell>
        <mxCell id="ujQeHG0R-6USSkuK_Hf3-15" value="" style="sketch=0;outlineConnect=0;fontColor=#232F3E;gradientColor=none;fillColor=#C925D1;strokeColor=none;dashed=0;verticalLabelPosition=bottom;verticalAlign=top;align=center;html=1;fontSize=12;fontStyle=0;aspect=fixed;pointerEvents=1;shape=mxgraph.aws4.rds_instance;" parent="ujQeHG0R-6USSkuK_Hf3-12" vertex="1">
          <mxGeometry x="26" y="52" width="78" height="78" as="geometry" />
        </mxCell>
        <mxCell id="ujQeHG0R-6USSkuK_Hf3-14" value="" style="sketch=0;points=[[0,0,0],[0.25,0,0],[0.5,0,0],[0.75,0,0],[1,0,0],[0,1,0],[0.25,1,0],[0.5,1,0],[0.75,1,0],[1,1,0],[0,0.25,0],[0,0.5,0],[0,0.75,0],[1,0.25,0],[1,0.5,0],[1,0.75,0]];outlineConnect=0;fontColor=#232F3E;fillColor=#ED7100;strokeColor=#ffffff;dashed=0;verticalLabelPosition=bottom;verticalAlign=top;align=center;html=1;fontSize=12;fontStyle=0;aspect=fixed;shape=mxgraph.aws4.resourceIcon;resIcon=mxgraph.aws4.ec2;" parent="ujQeHG0R-6USSkuK_Hf3-4" vertex="1">
          <mxGeometry x="151" y="120" width="78" height="78" as="geometry" />
        </mxCell>
        <mxCell id="ujQeHG0R-6USSkuK_Hf3-16" value="" style="sketch=0;outlineConnect=0;fontColor=#232F3E;gradientColor=none;fillColor=#4D4D4D;strokeColor=none;dashed=0;verticalLabelPosition=bottom;verticalAlign=top;align=center;html=1;fontSize=12;fontStyle=0;aspect=fixed;pointerEvents=1;shape=mxgraph.aws4.internet_gateway;" parent="ujQeHG0R-6USSkuK_Hf3-4" vertex="1">
          <mxGeometry x="400" y="-20" width="78" height="78" as="geometry" />
        </mxCell>
        <mxCell id="szb_LFwqe0KTjWJn87do-2" value="Application Load Balancer" style="sketch=0;outlineConnect=0;fontColor=#232F3E;gradientColor=none;strokeColor=#ffffff;fillColor=#232F3E;dashed=0;verticalLabelPosition=middle;verticalAlign=bottom;align=center;html=1;whiteSpace=wrap;fontSize=10;fontStyle=1;spacing=3;shape=mxgraph.aws4.productIcon;prIcon=mxgraph.aws4.application_load_balancer;" vertex="1" parent="ujQeHG0R-6USSkuK_Hf3-4">
          <mxGeometry x="398" y="111" width="80" height="110" as="geometry" />
        </mxCell>
        <mxCell id="szb_LFwqe0KTjWJn87do-3" style="edgeStyle=orthogonalEdgeStyle;rounded=0;orthogonalLoop=1;jettySize=auto;html=1;entryX=0.733;entryY=0.341;entryDx=0;entryDy=0;entryPerimeter=0;flowAnimation=1;shadow=1;strokeWidth=3;fillColor=#ffe6cc;strokeColor=#d79b00;" edge="1" parent="ujQeHG0R-6USSkuK_Hf3-4" source="szb_LFwqe0KTjWJn87do-2" target="ujQeHG0R-6USSkuK_Hf3-6">
          <mxGeometry relative="1" as="geometry" />
        </mxCell>
        <mxCell id="szb_LFwqe0KTjWJn87do-4" style="edgeStyle=orthogonalEdgeStyle;rounded=0;orthogonalLoop=1;jettySize=auto;html=1;entryX=0.267;entryY=0.341;entryDx=0;entryDy=0;entryPerimeter=0;fillColor=#f8cecc;strokeColor=#b85450;flowAnimation=1;shadow=1;strokeWidth=3;" edge="1" parent="ujQeHG0R-6USSkuK_Hf3-4" source="szb_LFwqe0KTjWJn87do-2" target="ujQeHG0R-6USSkuK_Hf3-5">
          <mxGeometry relative="1" as="geometry" />
        </mxCell>
      </root>
    </mxGraphModel>
  </diagram>
</mxfile>
